<?xml version="1.0" standalone="no"?>
<!DOCTYPE svg PUBLIC "-//W3C//DTD SVG 20010904//EN"
 "http://www.w3.org/TR/2001/REC-SVG-20010904/DTD/svg10.dtd">
<svg version="1.0" xmlns="http://www.w3.org/2000/svg"
 width="156.000000pt" height="156.000000pt" viewBox="0 0 156.000000 156.000000"
 preserveAspectRatio="xMidYMid meet">
<metadata>
Created by potrace 1.11, written by Peter Selinger 2001-2013
</metadata>
<g transform="translate(0.000000,156.000000) scale(0.100000,-0.100000)"
fill="#000000" stroke="none">
<path d="M274 1539 c-117 -40 -222 -148 -257 -265 -16 -53 -24 -273 -10 -275
40 -3 157 -3 162 1 5 3 41 56 80 118 42 64 80 113 89 113 20 2 46 -2 50 -6 2
-1 4 -197 4 -435 1 -458 2 -449 -44 -450 -21 0 -37 23 -93 133 l-41 82 -108 3
-107 3 2 -113 c1 -63 8 -134 16 -161 32 -108 104 -192 212 -245 l75 -37 476 0
476 0 76 37 c50 25 89 54 117 85 55 62 53 59 81 123 l25 55 2 461 c3 408 1
467 -14 510 -38 113 -105 189 -212 242 l-75 37 -460 2 c-442 2 -464 1 -522
-18z m1032 -321 c45 -21 54 -51 54 -185 l0 -123 -95 0 c-52 0 -95 3 -96 8 0 4
-1 31 -3 61 -2 44 -7 58 -28 76 -24 21 -36 23 -138 22 -101 -1 -113 -3 -136
-23 -27 -26 -25 -5 -26 -303 l0 -204 25 -24 c23 -24 31 -25 129 -25 57 -1 114
2 126 6 31 10 50 53 48 109 -1 26 1 48 4 48 3 1 47 3 98 3 l92 2 0 -122 c0
-210 15 -202 -375 -202 -326 0 -342 3 -368 56 -10 21 -13 108 -13 399 l1 373
28 27 c27 28 28 28 200 33 271 8 442 4 473 -12z"/>
</g>
</svg>
